<svg width="213" height="50" viewBox="0 0 213 50" fill="none" xmlns="http://www.w3.org/2000/svg">
<circle cx="25" cy="25" r="23.5" stroke="#3E3B2A" stroke-width="3"/>
<line x1="25.7143" y1="24.9286" x2="50" y2="24.9286" stroke="#3E3B2A" stroke-width="3"/>
<line x1="37.9286" y1="26.4286" x2="37.9286" y2="45.7143" stroke="#3E3B2A" stroke-width="3"/>
<path d="M77.768 13.76V16.736H71.848V36H68.2V16.736H62.248V13.76H77.768ZM97.5585 20.16C96.9825 19.0507 96.1825 18.2187 95.1585 17.664C94.1345 17.088 92.9505 16.8 91.6065 16.8C90.1345 16.8 88.8225 17.1307 87.6705 17.792C86.5185 18.4533 85.6118 19.392 84.9505 20.608C84.3105 21.824 83.9905 23.232 83.9905 24.832C83.9905 26.432 84.3105 27.8507 84.9505 29.088C85.6118 30.304 86.5185 31.2427 87.6705 31.904C88.8225 32.5653 90.1345 32.896 91.6065 32.896C93.5905 32.896 95.2012 32.3413 96.4385 31.232C97.6758 30.1227 98.4332 28.6187 98.7105 26.72H90.3585V23.808H102.615V26.656C102.38 28.384 101.761 29.9733 100.759 31.424C99.7772 32.8747 98.4865 34.0373 96.8865 34.912C95.3078 35.7653 93.5478 36.192 91.6065 36.192C89.5158 36.192 87.6065 35.712 85.8785 34.752C84.1505 33.7707 82.7745 32.416 81.7505 30.688C80.7478 28.96 80.2465 27.008 80.2465 24.832C80.2465 22.656 80.7478 20.704 81.7505 18.976C82.7745 17.248 84.1505 15.904 85.8785 14.944C87.6278 13.9627 89.5372 13.472 91.6065 13.472C93.9745 13.472 96.0758 14.0587 97.9105 15.232C99.7665 16.384 101.111 18.0267 101.943 20.16H97.5585ZM122.693 13.76L115.333 27.936V36H111.685V27.936L104.293 13.76H108.357L113.509 24.672L118.661 13.76H122.693ZM129.236 16.704V23.232H136.916V26.208H129.236V33.024H137.876V36H125.588V13.728H137.876V16.704H129.236ZM152.513 36.224C150.443 36.224 148.534 35.744 146.785 34.784C145.057 33.8027 143.681 32.448 142.657 30.72C141.654 28.9707 141.153 27.008 141.153 24.832C141.153 22.656 141.654 20.704 142.657 18.976C143.681 17.248 145.057 15.904 146.785 14.944C148.534 13.9627 150.443 13.472 152.513 13.472C154.603 13.472 156.513 13.9627 158.241 14.944C159.99 15.904 161.366 17.248 162.369 18.976C163.371 20.704 163.873 22.656 163.873 24.832C163.873 27.008 163.371 28.9707 162.369 30.72C161.366 32.448 159.99 33.8027 158.241 34.784C156.513 35.744 154.603 36.224 152.513 36.224ZM152.513 33.056C153.985 33.056 155.297 32.7253 156.449 32.064C157.601 31.3813 158.497 30.4213 159.137 29.184C159.798 27.9253 160.129 26.4747 160.129 24.832C160.129 23.1893 159.798 21.7493 159.137 20.512C158.497 19.2747 157.601 18.3253 156.449 17.664C155.297 17.0027 153.985 16.672 152.513 16.672C151.041 16.672 149.729 17.0027 148.577 17.664C147.425 18.3253 146.518 19.2747 145.857 20.512C145.217 21.7493 144.897 23.1893 144.897 24.832C144.897 26.4747 145.217 27.9253 145.857 29.184C146.518 30.4213 147.425 31.3813 148.577 32.064C149.729 32.7253 151.041 33.056 152.513 33.056ZM185.735 36H182.087L171.111 19.392V36H167.463V13.728H171.111L182.087 30.304V13.728H185.735V36ZM206.621 20.16C206.045 19.0507 205.245 18.2187 204.221 17.664C203.197 17.088 202.013 16.8 200.669 16.8C199.197 16.8 197.885 17.1307 196.733 17.792C195.581 18.4533 194.674 19.392 194.013 20.608C193.373 21.824 193.053 23.232 193.053 24.832C193.053 26.432 193.373 27.8507 194.013 29.088C194.674 30.304 195.581 31.2427 196.733 31.904C197.885 32.5653 199.197 32.896 200.669 32.896C202.653 32.896 204.264 32.3413 205.501 31.232C206.738 30.1227 207.496 28.6187 207.773 26.72H199.421V23.808H211.677V26.656C211.442 28.384 210.824 29.9733 209.821 31.424C208.84 32.8747 207.549 34.0373 205.949 34.912C204.37 35.7653 202.61 36.192 200.669 36.192C198.578 36.192 196.669 35.712 194.941 34.752C193.213 33.7707 191.837 32.416 190.813 30.688C189.81 28.96 189.309 27.008 189.309 24.832C189.309 22.656 189.81 20.704 190.813 18.976C191.837 17.248 193.213 15.904 194.941 14.944C196.69 13.9627 198.6 13.472 200.669 13.472C203.037 13.472 205.138 14.0587 206.973 15.232C208.829 16.384 210.173 18.0267 211.005 20.16H206.621Z" fill="#3E3B2A"/>
</svg>
