<svg width="350" height="70" viewBox="0 0 350 70" fill="none" xmlns="http://www.w3.org/2000/svg">
<circle cx="35" cy="35" r="32.5" stroke="#3E3B2A" stroke-width="5"/>
<line x1="35" y1="35.5" x2="68" y2="35.5" stroke="#3E3B2A" stroke-width="5"/>
<line x1="51.5" y1="36" x2="51.5" y2="65" stroke="#3E3B2A" stroke-width="5"/>
<path d="M116.155 19V24.869H105.666V53.0113H99.1483V24.869H89V19H116.155Z" fill="#3E3B2A"/>
<path d="M151.014 29.5353C150.269 28.1242 149.245 27.0498 147.942 26.3122C146.638 25.5745 145.118 25.2057 143.38 25.2057C141.456 25.2057 139.749 25.6547 138.259 26.5527C136.769 27.4507 135.606 28.7335 134.768 30.4012C133.93 32.0689 133.511 33.9932 133.511 36.174C133.511 38.419 133.93 40.3753 134.768 42.043C135.637 43.7107 136.831 44.9935 138.352 45.8915C139.873 46.7895 141.642 47.2385 143.659 47.2385C146.142 47.2385 148.175 46.565 149.757 45.218C151.34 43.839 152.38 41.9307 152.876 39.4933H141.704V34.346H159.301V40.2149C158.866 42.5561 157.935 44.7209 156.507 46.7093C155.08 48.6977 153.233 50.3013 150.968 51.52C148.733 52.7066 146.219 53.2999 143.426 53.2999C140.292 53.2999 137.452 52.5783 134.907 51.1351C132.393 49.6598 130.407 47.6233 128.949 45.0256C127.521 42.4278 126.807 39.4773 126.807 36.174C126.807 32.8707 127.521 29.9202 128.949 27.3224C130.407 24.6926 132.393 22.6561 134.907 21.2129C137.452 19.7376 140.276 19 143.38 19C147.042 19 150.223 19.9301 152.923 21.7902C155.623 23.6182 157.485 26.1999 158.509 29.5353H151.014Z" fill="#3E3B2A"/>
<path d="M195.778 26.6489L180.416 65.4227H176.04L181.067 52.7226L170.779 26.6489H175.481L183.488 48.0082L191.402 26.6489H195.778Z" fill="#3E3B2A"/>
<path d="M232.623 38.8199C232.623 39.6537 232.576 40.5357 232.483 41.4657H212.093C212.248 44.0635 213.102 46.1 214.654 47.5752C216.236 49.0184 218.145 49.74 220.38 49.74C222.211 49.74 223.731 49.3071 224.942 48.4411C226.183 47.5432 227.052 46.3565 227.549 44.8813H232.111C231.428 47.4149 230.062 49.4835 228.014 51.087C225.966 52.6585 223.421 53.4442 220.38 53.4442C217.959 53.4442 215.786 52.883 213.862 51.7605C211.969 50.638 210.479 49.0505 209.393 46.998C208.307 44.9133 207.764 42.508 207.764 39.782C207.764 37.056 208.291 34.6667 209.347 32.6141C210.402 30.5616 211.876 28.9901 213.769 27.8997C215.693 26.7772 217.897 26.216 220.38 26.216C222.8 26.216 224.942 26.7612 226.804 27.8516C228.666 28.942 230.093 30.4493 231.087 32.3736C232.111 34.2658 232.623 36.4145 232.623 38.8199ZM228.247 37.9058C228.247 36.2381 227.89 34.811 227.176 33.6244C226.462 32.4057 225.485 31.4916 224.243 30.8823C223.033 30.2409 221.683 29.9202 220.193 29.9202C218.052 29.9202 216.221 30.6257 214.7 32.0368C213.21 33.448 212.357 35.4043 212.14 37.9058H228.247Z" fill="#3E3B2A"/>
<path d="M258.651 53.4442C256.261 53.4442 254.089 52.883 252.134 51.7605C250.209 50.638 248.689 49.0505 247.571 46.998C246.485 44.9133 245.942 42.508 245.942 39.782C245.942 37.088 246.501 34.7148 247.618 32.6622C248.766 30.5776 250.318 28.9901 252.273 27.8997C254.228 26.7772 256.416 26.216 258.837 26.216C261.258 26.216 263.446 26.7772 265.401 27.8997C267.356 28.9901 268.892 30.5616 270.01 32.6141C271.158 34.6667 271.732 37.056 271.732 39.782C271.732 42.508 271.142 44.9133 269.963 46.998C268.815 49.0505 267.247 50.638 265.261 51.7605C263.275 52.883 261.072 53.4442 258.651 53.4442ZM258.651 49.5957C260.172 49.5957 261.599 49.2269 262.934 48.4893C264.268 47.7516 265.339 46.6452 266.146 45.1699C266.984 43.6946 267.403 41.8987 267.403 39.782C267.403 37.6653 266.999 35.8693 266.192 34.3941C265.385 32.9188 264.33 31.8284 263.027 31.1228C261.723 30.3852 260.311 30.0164 258.791 30.0164C257.239 30.0164 255.811 30.3852 254.508 31.1228C253.235 31.8284 252.211 32.9188 251.435 34.3941C250.659 35.8693 250.271 37.6653 250.271 39.782C250.271 41.9307 250.644 43.7427 251.389 45.218C252.165 46.6933 253.189 47.7997 254.461 48.5374C255.734 49.2429 257.13 49.5957 258.651 49.5957Z" fill="#3E3B2A"/>
<path d="M299.042 26.1679C302.145 26.1679 304.659 27.146 306.583 29.1024C308.507 31.0266 309.469 33.8168 309.469 37.4729V53.0113H305.28V38.0983C305.28 35.4684 304.644 33.464 303.371 32.085C302.099 30.6738 300.361 29.9683 298.157 29.9683C295.923 29.9683 294.138 30.6899 292.804 32.1331C291.5 33.5763 290.849 35.6769 290.849 38.435V53.0113H286.612V26.6489H290.849V30.4012C291.687 29.0542 292.819 28.0119 294.247 27.2743C295.706 26.5367 297.304 26.1679 299.042 26.1679Z" fill="#3E3B2A"/>
<path d="M336.221 26.216C338.424 26.216 340.348 26.7131 341.993 27.7073C343.669 28.7015 344.91 29.9522 345.717 31.4596V26.6489H350V53.5885C350 55.9939 349.503 58.1266 348.51 59.9867C347.517 61.8789 346.09 63.3541 344.228 64.4125C342.396 65.4708 340.255 66 337.803 66C334.452 66 331.658 65.1822 329.424 63.5466C327.189 61.911 325.87 59.682 325.467 56.8598H329.657C330.122 58.4633 331.084 59.7462 332.543 60.7083C334.002 61.7025 335.755 62.1996 337.803 62.1996C340.131 62.1996 342.024 61.4459 343.483 59.9386C344.972 58.4313 345.717 56.3146 345.717 53.5885V48.0563C344.879 49.5957 343.638 50.8785 341.993 51.9048C340.348 52.9311 338.424 53.4442 336.221 53.4442C333.955 53.4442 331.891 52.8669 330.029 51.7124C328.198 50.5578 326.755 48.9382 325.7 46.8536C324.645 44.769 324.117 42.3958 324.117 39.7339C324.117 37.0399 324.645 34.6827 325.7 32.6622C326.755 30.6097 328.198 29.0222 330.029 27.8997C331.891 26.7772 333.955 26.216 336.221 26.216ZM345.717 39.782C345.717 37.7936 345.329 36.0618 344.553 34.5865C343.778 33.1112 342.722 31.9887 341.388 31.219C340.084 30.4173 338.641 30.0164 337.058 30.0164C335.476 30.0164 334.033 30.4012 332.729 31.1709C331.426 31.9406 330.386 33.0631 329.61 34.5384C328.834 36.0136 328.446 37.7455 328.446 39.7339C328.446 41.7543 328.834 43.5183 329.61 45.0256C330.386 46.5009 331.426 47.6394 332.729 48.4411C334.033 49.2109 335.476 49.5957 337.058 49.5957C338.641 49.5957 340.084 49.2109 341.388 48.4411C342.722 47.6394 343.778 46.5009 344.553 45.0256C345.329 43.5183 345.717 41.7704 345.717 39.782Z" fill="#3E3B2A"/>
</svg>
